# xmcd
#
# Track frame offsets: 
#        150
#        19157
#        35205
#        54212
#        69042
#        91685
#        110085
#        128172
#        146420
#        161457
#        177445
#        192760
#
# Disc length: 2809 seconds
#
# Revision: 3
# Processed by: cddbd v1.5.2PL0 Copyright (c) Steve Scherf et al.
# Submitted via: ExactAudioCopy v0.95a4
#
DISCID=990af70c
DTITLE=Cledus T. Judd - Cledus Envy
DYEAR=1900
DGENRE=Country
TTITLE0=It's A Great Day To Be A Guy
TTITLE1=Breath
TTITLE2=Willie's Got A Big Deck
TTITLE3=Let's Burn One
TTITLE4=My Voice
TTITLE5=Man Of Constant Borrow
TTITLE6=Let's Shoot Dove
TTITLE7=1/2
TTITLE8=If George Strait Starts Dancin'
TTITLE9=Just Another Day In Parodies
TTITLE10=Leave You Laugin'
TTITLE11=Don't Mess With America
EXTD=
EXTT0=
EXTT1=
EXTT2=
EXTT3=
EXTT4=
EXTT5=
EXTT6=
EXTT7=
EXTT8=
EXTT9=
EXTT10=
EXTT11=
PLAYORDER=
